<svg width="48" height="49" viewBox="0 0 48 49" fill="none" xmlns="http://www.w3.org/2000/svg">
<g clip-path="url(#clip0_2027_377)">
<path d="M18.6599 9.75829C18.9186 9.96343 19.1637 10.1767 19.407 10.3999C19.4524 10.4408 19.4978 10.4817 19.5446 10.5239C21.5256 12.3268 22.7101 14.9023 22.8915 17.5695C22.9428 18.6739 22.8536 19.7318 22.5945 20.8061C22.5799 20.8674 22.5653 20.9287 22.5503 20.9919C22.1821 22.47 21.4626 23.8954 20.4382 25.0249C20.3741 25.1011 20.3099 25.1774 20.2438 25.256C18.8423 26.889 16.9199 28.039 14.8187 28.5094C14.7457 28.5261 14.6727 28.5429 14.5974 28.5601C14.4195 28.6009 14.2414 28.6411 14.0632 28.6811C14.1844 28.6817 14.3055 28.6822 14.4302 28.6828C15.5711 28.6882 16.7119 28.695 17.8527 28.7032C18.4392 28.7074 19.0257 28.7111 19.6122 28.7136C20.1782 28.7161 20.7441 28.7198 21.31 28.7246C21.526 28.7261 21.742 28.7272 21.958 28.7278C22.2604 28.7287 22.5627 28.7313 22.865 28.7344C22.9545 28.7342 23.044 28.7341 23.1362 28.7339C23.5918 28.7404 23.9156 28.7528 24.282 29.0561C24.4 29.2922 24.3896 29.4579 24.3923 29.7222C24.3941 29.872 24.3941 29.872 24.396 30.0247C24.3967 30.133 24.3974 30.2413 24.3981 30.3529C24.3988 30.4639 24.3996 30.5749 24.4004 30.6892C24.4017 30.9245 24.4027 31.1597 24.4034 31.395C24.405 31.7549 24.4091 32.1147 24.4133 32.4745C24.4142 32.7029 24.415 32.9312 24.4157 33.1595C24.4173 33.2673 24.4189 33.375 24.4206 33.486C24.4195 33.8982 24.4069 34.2264 24.2561 34.6122C24.0007 34.7749 24.0007 34.7749 22.8757 34.7749C22.8757 35.7649 22.8757 36.7549 22.8757 37.7749C23.1542 37.7749 23.4326 37.7749 23.7195 37.7749C24.0888 37.877 24.1587 37.9181 24.3757 38.2436C24.4008 38.4665 24.4008 38.4665 24.403 38.7329C24.4042 38.8327 24.4054 38.9325 24.4066 39.0353C24.4068 39.1432 24.407 39.251 24.4072 39.3621C24.4082 39.5283 24.4082 39.5283 24.4091 39.698C24.4101 39.9327 24.4105 40.1674 24.4105 40.402C24.4109 40.7611 24.4143 41.1201 24.4179 41.4791C24.4184 41.707 24.4188 41.9349 24.419 42.1628C24.4203 42.2703 24.4217 42.3777 24.423 42.4884C24.4206 42.9184 24.4179 43.2227 24.2222 43.6101C23.9348 43.824 23.7694 43.8235 23.4148 43.8042C23.2633 43.7978 23.2633 43.7978 23.1087 43.7914C23.0318 43.7859 22.9549 43.7805 22.8757 43.7749C22.8777 43.8946 22.8797 44.0142 22.8817 44.1375C22.8885 44.5822 22.8928 45.0268 22.8963 45.4715C22.8982 45.6638 22.9008 45.8561 22.904 46.0484C22.9086 46.3252 22.9107 46.6018 22.9124 46.8785C22.9143 46.9643 22.9162 47.05 22.9182 47.1384C22.9183 47.2191 22.9183 47.2998 22.9183 47.3829C22.9192 47.4534 22.92 47.524 22.9208 47.5967C22.8529 47.9122 22.7343 48.0517 22.5007 48.2749C22.213 48.3217 21.9772 48.3379 21.6894 48.3338C21.6067 48.3345 21.5239 48.3351 21.4387 48.3358C21.1608 48.3375 20.8831 48.3358 20.6052 48.3341C20.4063 48.3345 20.2073 48.3352 20.0084 48.3361C19.4676 48.3378 18.9268 48.3366 18.386 48.3348C17.8206 48.3332 17.2553 48.3341 16.6899 48.3345C15.7404 48.335 14.7909 48.3335 13.8413 48.3309C12.7428 48.3279 11.6443 48.3279 10.5458 48.3295C9.48999 48.331 8.43421 48.3303 7.37841 48.3287C6.92866 48.3281 6.47891 48.3282 6.02915 48.3289C5.49973 48.3296 4.97035 48.3285 4.44093 48.3259C4.24638 48.3252 4.05182 48.3252 3.85726 48.3259C3.59216 48.3267 3.32718 48.3252 3.06209 48.3231C2.98465 48.3239 2.9072 48.3247 2.82741 48.3255C2.48861 48.3205 2.29092 48.3049 2.01548 48.0993C1.83844 47.8467 1.82877 47.6971 1.82871 47.3899C1.82784 47.288 1.82696 47.186 1.82605 47.0809C1.8271 46.9712 1.82816 46.8615 1.82924 46.7485C1.8291 46.6355 1.82897 46.5225 1.82883 46.406C1.82898 46.1671 1.83007 45.9281 1.83201 45.6892C1.83472 45.3232 1.83394 44.9572 1.83272 44.5912C1.8333 44.3591 1.83409 44.1271 1.8351 43.895C1.83483 43.7853 1.83455 43.6757 1.83427 43.5627C1.83546 43.4607 1.83664 43.3587 1.83787 43.2536C1.83863 43.1191 1.83863 43.1191 1.8394 42.982C1.88274 42.6978 1.95432 42.5711 2.157 42.3686C2.532 42.2749 2.532 42.2749 3.37575 42.2749C3.37575 41.2849 3.37575 40.2949 3.37575 39.2749C3.0045 39.2749 2.63325 39.2749 2.25075 39.2749C1.8288 38.8529 1.8288 38.8529 1.82871 38.3799C1.82784 38.2757 1.82696 38.1715 1.82605 38.0642C1.8271 37.9522 1.82816 37.8401 1.82924 37.7247C1.8291 37.6094 1.82897 37.4941 1.82883 37.3752C1.82898 37.1315 1.83007 36.8877 1.83201 36.644C1.83383 36.3938 1.8348 36.1438 1.83393 35.8936C1.83275 35.5332 1.83356 35.1729 1.8351 34.8126C1.83483 34.7004 1.83455 34.5882 1.83427 34.4726C1.83546 34.3687 1.83664 34.2648 1.83787 34.1578C1.83838 34.0663 1.83888 33.9748 1.8394 33.8805C1.88203 33.61 1.93896 33.5292 2.157 33.3686C2.43965 33.2744 2.62967 33.2652 2.92458 33.269C3.00905 33.2699 3.09353 33.2707 3.18056 33.2716C3.27718 33.2732 3.27718 33.2732 3.37575 33.2749C3.37329 33.1519 3.37084 33.0289 3.36831 32.9022C3.35983 32.4458 3.35444 31.9895 3.35 31.5331C3.34764 31.3356 3.34444 31.1381 3.34039 30.9406C3.3347 30.6566 3.33204 30.3728 3.32997 30.0889C3.32634 29.9564 3.32634 29.9564 3.32264 29.8213C3.32261 29.7387 3.32257 29.6562 3.32253 29.5711C3.32149 29.4987 3.32045 29.4262 3.31938 29.3516C3.40763 29.0358 3.56791 28.941 3.8445 28.7749C4.16068 28.7262 4.16068 28.7262 4.52595 28.7237C4.62618 28.7223 4.62618 28.7223 4.72843 28.7208C4.94809 28.718 5.16767 28.7179 5.38735 28.7178C5.54012 28.7164 5.69289 28.7148 5.84565 28.7131C6.24683 28.709 6.64799 28.7071 7.04919 28.7057C7.45894 28.7038 7.86866 28.6999 8.2784 28.6962C9.08168 28.6891 9.88495 28.6844 10.6882 28.6811C10.5816 28.6571 10.4749 28.633 10.365 28.6082C10.2221 28.5754 10.0793 28.5426 9.93642 28.5098C9.86644 28.494 9.79647 28.4783 9.72437 28.4621C7.21375 27.8816 4.98489 26.2733 3.57204 24.1258C2.94918 23.1244 2.47496 22.1342 2.157 20.9936C2.12703 20.8918 2.09706 20.7899 2.06618 20.6849C1.41162 18.0515 1.92359 15.1609 3.282 12.8374C4.12269 11.5229 5.11616 10.4728 6.37575 9.55614C6.46071 9.49415 6.54566 9.43215 6.6332 9.36827C10.2269 6.92324 15.1992 7.29657 18.6599 9.75829ZM5.66924 12.1468C3.80812 14.2357 3.25539 16.6597 3.37575 19.3999C3.56956 21.6895 4.9455 23.8375 6.657 25.3061C8.56326 26.8294 10.8991 27.4324 13.3132 27.2749C15.6358 27.0133 17.767 25.8317 19.2949 24.0683C20.8401 22.0997 21.6372 19.701 21.3487 17.1963C21.0123 14.8529 19.835 12.5797 17.932 11.1189C16.2939 9.92942 14.4419 9.23413 12.405 9.24559C12.3062 9.24612 12.2074 9.24665 12.1055 9.2472C9.64932 9.28519 7.35006 10.3596 5.66924 12.1468ZM4.87575 30.2749C4.87575 31.2649 4.87575 32.2549 4.87575 33.2749C10.8158 33.2749 16.7558 33.2749 22.8757 33.2749C22.8757 32.2849 22.8757 31.2949 22.8757 30.2749C16.9358 30.2749 10.9957 30.2749 4.87575 30.2749ZM3.37575 34.7749C3.37575 35.7649 3.37575 36.7549 3.37575 37.7749C9.31575 37.7749 15.2558 37.7749 21.3757 37.7749C21.3757 36.7849 21.3757 35.7949 21.3757 34.7749C15.4358 34.7749 9.49575 34.7749 3.37575 34.7749ZM4.87575 39.2749C4.87575 40.2649 4.87575 41.2549 4.87575 42.2749C10.8158 42.2749 16.7558 42.2749 22.8757 42.2749C22.8757 41.2849 22.8757 40.2949 22.8757 39.2749C16.9358 39.2749 10.9957 39.2749 4.87575 39.2749ZM3.37575 43.7749C3.37575 44.7649 3.37575 45.7549 3.37575 46.7749C9.31575 46.7749 15.2558 46.7749 21.3757 46.7749C21.3757 45.7849 21.3757 44.7949 21.3757 43.7749C15.4358 43.7749 9.49575 43.7749 3.37575 43.7749Z" fill="#573FE7"/>
<path d="M35.0657 0.237073C35.3883 0.302753 35.5153 0.493122 35.7197 0.743543C35.8367 0.87266 35.9539 1.00154 36.0713 1.13026C36.4992 1.61518 36.9065 2.11609 37.3135 2.61854C37.4442 2.77879 37.5751 2.93894 37.7061 3.09901C37.7751 3.18336 37.8441 3.26772 37.9152 3.35463C38.2714 3.78941 38.6291 4.22296 38.9866 4.65674C39.2889 5.02369 39.5908 5.39099 39.8916 5.75917C40.4107 6.39437 40.9327 7.02718 41.4544 7.66026C41.7304 7.99526 42.0063 8.33034 42.2822 8.66542C42.3916 8.79823 42.501 8.93104 42.6103 9.06386C42.8291 9.32948 43.0478 9.59511 43.2666 9.86073C43.3208 9.92654 43.375 9.99235 43.4308 10.0602C43.5396 10.1923 43.6484 10.3244 43.7571 10.4565C44.0394 10.7995 44.3221 11.1421 44.6055 11.4841C44.6638 11.5547 44.7222 11.6253 44.7823 11.698C44.8928 11.8315 45.0034 11.965 45.1141 12.0983C45.2652 12.2811 45.4148 12.465 45.5635 12.6498C45.6165 12.7155 45.6695 12.7812 45.7242 12.8489C45.7752 12.9141 45.8262 12.9792 45.8788 13.0464C45.9247 13.1047 45.9707 13.1629 46.0181 13.223C46.2186 13.5516 46.1948 13.7741 46.126 14.1498C45.9203 14.4002 45.7532 14.5112 45.43 14.5569C45.1411 14.5683 44.8546 14.5669 44.5655 14.5614C44.4601 14.5609 44.3546 14.5604 44.246 14.5598C43.9097 14.5577 43.5735 14.553 43.2373 14.5482C43.0091 14.5463 42.7809 14.5446 42.5527 14.5431C41.9937 14.539 41.4349 14.5327 40.876 14.5248C40.8763 14.6061 40.8767 14.6874 40.877 14.7712C40.8853 16.7483 40.8915 18.7255 40.8954 20.7027C40.8973 21.6588 40.9 22.6149 40.9043 23.5711C40.908 24.4043 40.9104 25.2375 40.9113 26.0708C40.9117 26.5121 40.9129 26.9534 40.9156 27.3947C40.9182 27.8099 40.919 28.2251 40.9184 28.6403C40.9185 28.7929 40.9192 28.9454 40.9207 29.0979C40.9225 29.306 40.9221 29.5139 40.9211 29.722C40.9214 29.8384 40.9218 29.9549 40.9221 30.075C40.8671 30.4251 40.7844 30.5363 40.501 30.7435C40.1728 30.7904 40.1728 30.7904 39.8447 30.7435C39.5722 30.5355 39.4847 30.4136 39.376 30.0873C39.3667 29.8698 39.3633 29.6521 39.3628 29.4344C39.3625 29.3676 39.3623 29.3007 39.362 29.2319C39.3611 29.0073 39.361 28.7828 39.3609 28.5582C39.3604 28.3975 39.36 28.2367 39.3595 28.076C39.3582 27.6388 39.3576 27.2016 39.3572 26.7644C39.3569 26.4913 39.3565 26.2182 39.3561 25.9451C39.3548 25.0909 39.3539 24.2366 39.3536 23.3824C39.3532 22.396 39.3515 21.4096 39.3488 20.4232C39.3468 19.6609 39.3458 18.8986 39.3457 18.1364C39.3456 17.681 39.345 17.2256 39.3434 16.7703C39.3418 16.3419 39.3416 15.9136 39.3424 15.4852C39.3425 15.328 39.3421 15.1709 39.3412 15.0138C39.34 14.799 39.3405 14.5844 39.3415 14.3696C39.3414 14.2495 39.3412 14.1294 39.3411 14.0057C39.3793 13.6497 39.4704 13.4222 39.6572 13.1185C39.9791 12.9576 40.3492 13.0018 40.7039 12.9951C40.7889 12.9932 40.874 12.9912 40.9616 12.9892C41.2338 12.9831 41.5061 12.9776 41.7783 12.9721C41.9626 12.968 42.147 12.9639 42.3313 12.9598C42.7837 12.9497 43.2361 12.9402 43.6885 12.931C43.1992 12.3326 42.7094 11.7346 42.2178 11.1381C42.1041 11.0001 41.9905 10.8622 41.8768 10.7243C41.8197 10.655 41.7627 10.5857 41.7038 10.5143C41.4278 10.1793 41.1519 9.84424 40.876 9.50917C40.7666 9.37636 40.6572 9.24354 40.5478 9.11073C37.2666 5.12636 37.2666 5.12636 37.1023 4.92675C36.9939 4.79517 36.8854 4.66366 36.7769 4.5322C36.4877 4.18172 36.2001 3.83002 35.9145 3.47657C35.8545 3.40262 35.7944 3.32866 35.7325 3.25245C35.6166 3.10964 35.5011 2.96646 35.3861 2.82289C35.3083 2.72736 35.3083 2.72736 35.229 2.6299C35.1833 2.57327 35.1377 2.51664 35.0907 2.4583C35.0508 2.41837 35.0108 2.37844 34.9697 2.33729C34.9078 2.33729 34.846 2.33729 34.7822 2.33729C34.6227 2.52542 34.4733 2.71463 34.3252 2.91151C33.9591 3.38855 33.5834 3.85264 33.1885 4.30604C32.8164 4.73442 32.4578 5.16996 32.1103 5.61854C31.7137 6.13031 31.3008 6.62466 30.8772 7.11426C30.4503 7.60787 30.0369 8.11164 29.626 8.61854C29.0258 9.35396 28.4228 10.0869 27.8191 10.8195C27.5782 11.1118 27.3375 11.4043 27.0969 11.6969C27.0367 11.7701 26.9765 11.8434 26.9144 11.9188C26.7981 12.0603 26.6818 12.2018 26.5655 12.3433C26.5133 12.4068 26.4611 12.4702 26.4073 12.5355C26.3612 12.5917 26.3151 12.6478 26.2675 12.7056C26.1572 12.8373 26.1572 12.8373 26.0635 12.931C26.1808 12.9319 26.2981 12.9328 26.419 12.9337C26.8544 12.9374 27.2898 12.9436 27.7252 12.9505C27.9136 12.9531 28.102 12.9551 28.2904 12.9564C28.5613 12.9585 28.8321 12.9628 29.103 12.9677C29.1872 12.9678 29.2714 12.9679 29.3582 12.968C29.437 12.9699 29.5158 12.9717 29.597 12.9736C29.6661 12.9744 29.7352 12.9753 29.8064 12.9761C30.1005 13.0497 30.1943 13.1553 30.376 13.3998C30.4321 13.6944 30.4249 13.9857 30.4211 14.2848C30.4214 14.3755 30.4217 14.4662 30.422 14.5596C30.4227 14.8642 30.4206 15.1688 30.4185 15.4734C30.4184 15.6914 30.4185 15.9094 30.4187 16.1275C30.4188 16.7202 30.4166 17.3128 30.414 17.9055C30.4119 18.4619 30.4115 19.0183 30.4111 19.5747C30.4103 20.6768 30.4078 21.7788 30.4043 22.8809C30.4008 23.9515 30.3982 25.022 30.3966 26.0926C30.3964 26.1916 30.3964 26.1916 30.3963 26.2925C30.3958 26.6236 30.3953 26.9546 30.3948 27.2857C30.391 30.0321 30.384 32.7784 30.376 35.5248C33.346 35.5248 36.316 35.5248 39.376 35.5248C39.376 34.7823 39.376 34.0398 39.376 33.2748C39.6572 32.7123 39.6572 32.7123 39.8447 32.6185C40.4213 32.5652 40.4213 32.5652 40.7066 32.7564C40.9539 33.1026 40.9299 33.4008 40.9258 33.8168C40.9261 33.8965 40.9265 33.9763 40.9269 34.0584C40.9271 34.2267 40.9264 34.395 40.9249 34.5634C40.9229 34.8208 40.9248 35.078 40.9272 35.3355C40.927 35.4992 40.9265 35.6629 40.9258 35.8265C40.9265 35.9034 40.9273 35.9803 40.9281 36.0595C40.9263 36.1674 40.9263 36.1674 40.9245 36.2775C40.9242 36.3405 40.9239 36.4035 40.9236 36.4684C40.8531 36.7368 40.7114 36.8484 40.501 37.0248C40.2816 37.0717 40.2816 37.0717 40.0349 37.0718C39.941 37.0727 39.8472 37.0736 39.7505 37.0746C39.6481 37.0737 39.5457 37.0728 39.4402 37.0718C39.2778 37.0726 39.2778 37.0726 39.1122 37.0734C38.7538 37.0745 38.3955 37.073 38.0371 37.0713C37.7884 37.0713 37.5397 37.0714 37.291 37.0717C36.7696 37.072 36.2482 37.0707 35.7268 37.0685C35.1242 37.066 34.5216 37.0659 33.919 37.067C33.339 37.068 32.7591 37.0674 32.1791 37.0661C31.9324 37.0657 31.6857 37.0656 31.439 37.066C31.0945 37.0663 30.75 37.0647 30.4055 37.0627C30.3031 37.0631 30.2007 37.0635 30.0952 37.0639C30.0014 37.063 29.9075 37.0621 29.8108 37.0611C29.7294 37.0609 29.648 37.0607 29.5641 37.0604C29.2944 37.0166 29.1667 36.9306 28.9697 36.7435C28.8851 36.4897 28.8643 36.3454 28.8644 36.0851C28.8643 36.0081 28.8641 35.9311 28.8639 35.8518C28.8643 35.725 28.8643 35.725 28.8647 35.5956C28.8646 35.5058 28.8645 35.416 28.8645 35.3234C28.8643 35.0212 28.8648 34.7189 28.8653 34.4166C28.8654 34.2004 28.8653 33.9842 28.8653 33.7681C28.8653 33.18 28.8658 32.592 28.8665 32.004C28.8671 31.3899 28.8671 30.7758 28.8672 30.1617C28.8675 29.1306 28.8681 28.0995 28.8689 27.0684C28.8698 26.0063 28.8704 24.9442 28.8708 23.8821C28.8708 23.8166 28.8709 23.7511 28.8709 23.6837C28.871 23.3554 28.8711 23.027 28.8713 22.6986C28.8722 19.974 28.8739 17.2494 28.876 14.5248C28.8181 14.5252 28.7602 14.5256 28.7005 14.5261C28.0983 14.5302 27.4961 14.533 26.8939 14.5351C26.6691 14.536 26.4443 14.5373 26.2195 14.5389C25.8965 14.5412 25.5735 14.5423 25.2505 14.5431C25.1499 14.5441 25.0493 14.545 24.9456 14.546C24.8518 14.5461 24.758 14.5461 24.6613 14.5461C24.5377 14.5467 24.5377 14.5467 24.4115 14.5473C24.1691 14.5228 24.0198 14.4647 23.8135 14.3373C23.6302 14.1017 23.6259 13.9673 23.6326 13.6668C23.7479 13.1896 23.9801 12.9304 24.2998 12.5678C24.4203 12.4264 24.5408 12.2851 24.6613 12.1437C24.7231 12.0721 24.7849 12.0004 24.8485 11.9266C25.1338 11.5938 25.4109 11.2546 25.6885 10.9154C25.7978 10.7826 25.9072 10.6498 26.0166 10.517C26.0707 10.4512 26.1249 10.3855 26.1807 10.3178C28.0947 7.99354 30.0088 5.66932 31.9228 3.34511C32.0042 3.24633 32.0042 3.24633 32.0872 3.14557C32.1957 3.01381 32.3042 2.88206 32.4128 2.75033C32.6995 2.40233 32.9858 2.05401 33.2716 1.70521C33.3312 1.63252 33.3909 1.55983 33.4523 1.48494C33.5667 1.34551 33.681 1.20599 33.7951 1.06636C33.8466 1.00358 33.8982 0.940795 33.9513 0.876111C34.019 0.793382 34.019 0.793382 34.0881 0.708982C34.1316 0.658512 34.175 0.608042 34.2197 0.556043C34.2642 0.504002 34.3086 0.451961 34.3544 0.398343C34.5719 0.215004 34.7904 0.224563 35.0657 0.237073Z" fill="#573FE7"/>
<path d="M12.6466 9.98486C12.9543 10.0471 13.0435 10.1376 13.2189 10.3998C13.2647 10.7213 13.2542 11.0368 13.2424 11.3607C13.2407 11.4485 13.239 11.5362 13.2373 11.6266C13.2328 11.8427 13.2267 12.0587 13.2189 12.2748C13.3157 12.2709 13.4125 12.267 13.5123 12.2631C14.2406 12.2866 14.8952 12.6017 15.4221 13.101C16.0737 13.8176 16.2364 14.5213 16.2424 15.4623C16.2443 15.5379 16.2463 15.6136 16.2482 15.6915C16.2504 16.021 16.2505 16.2453 16.097 16.5411C15.844 16.7633 15.6103 16.7632 15.2814 16.7748C15.0646 16.7162 15.0646 16.7162 14.9064 16.5873C14.7279 16.2257 14.6935 15.9152 14.6779 15.515C14.638 14.9151 14.5625 14.5394 14.1096 14.1205C13.6376 13.8019 13.1762 13.8481 12.6271 13.8451C12.4953 13.8422 12.4953 13.8422 12.3607 13.8392C11.7148 13.8356 11.3166 13.9372 10.8107 14.3607C10.4863 14.7465 10.3323 15.0955 10.2775 15.597C10.3487 16.2727 10.5367 16.6905 11.0616 17.1285C11.5668 17.4366 12.0547 17.4542 12.6271 17.4662C13.7166 17.5109 14.5821 17.7707 15.3752 18.556C15.5945 18.8229 15.7722 19.0969 15.9377 19.3998C15.9696 19.4562 16.0015 19.5127 16.0344 19.5708C16.3909 20.3317 16.3273 21.3257 16.0725 22.1068C15.7151 22.9477 15.1625 23.5803 14.3439 23.9935C13.6003 24.2748 13.6003 24.2748 13.2189 24.2748C13.2244 24.3979 13.2298 24.5211 13.2354 24.6479C13.2398 24.8107 13.2441 24.9734 13.2482 25.1361C13.2522 25.2171 13.2561 25.2982 13.2601 25.3817C13.2683 25.8079 13.2654 25.9946 13.0007 26.3446C12.7502 26.5248 12.7502 26.5248 12.4631 26.5775C12.1298 26.5137 12.0211 26.4122 11.8127 26.1498C11.705 25.9345 11.7081 25.8139 11.7098 25.5748C11.7101 25.4993 11.7104 25.4238 11.7107 25.3459C11.7115 25.267 11.7123 25.1881 11.7131 25.1068C11.7135 25.0272 11.7139 24.9475 11.7144 24.8655C11.7155 24.6686 11.7172 24.4717 11.7189 24.2748C11.5991 24.269 11.4792 24.2632 11.3557 24.2572C10.6656 24.181 9.95375 23.8355 9.46895 23.3373C8.94289 22.5976 8.62423 21.9082 8.76253 20.9862C8.8127 20.806 8.8127 20.806 8.9709 20.6127C9.26147 20.4949 9.43901 20.474 9.7502 20.5248C10.1919 20.836 10.2721 21.1337 10.3654 21.6362C10.4354 21.979 10.5416 22.2087 10.838 22.4062C11.3382 22.6742 11.7527 22.7441 12.3166 22.7338C12.3947 22.7329 12.4729 22.732 12.5534 22.7311C13.1651 22.7104 13.6722 22.6113 14.1564 22.2123C14.5762 21.7585 14.6595 21.2759 14.6508 20.6779C14.6025 20.2126 14.4359 19.8507 14.0891 19.5338C13.6566 19.2132 13.318 19.1116 12.7736 19.0914C11.4632 19.0417 10.4213 18.8119 9.48652 17.8295C8.8701 17.0843 8.63706 16.1333 8.71895 15.181C8.89417 14.2485 9.30286 13.4698 10.0607 12.89C10.5749 12.5428 11.0893 12.2748 11.7189 12.2748C11.7157 12.1584 11.7124 12.042 11.7091 11.9221C11.7064 11.7682 11.7039 11.6143 11.7014 11.4603C11.699 11.3838 11.6967 11.3072 11.6942 11.2283C11.6887 10.7771 11.7108 10.4881 12.0002 10.1185C12.1737 9.94506 12.415 9.99746 12.6466 9.98486Z" fill="#573FE7"/>
<path d="M29.9932 39.2504C30.1292 39.2494 30.1292 39.2494 30.268 39.2484C30.3663 39.2486 30.4647 39.2489 30.5661 39.2491C30.6706 39.2486 30.7751 39.2482 30.8827 39.2477C31.2279 39.2464 31.5731 39.2465 31.9183 39.2467C32.1583 39.2463 32.3982 39.2459 32.6381 39.2455C33.1409 39.2448 33.6437 39.2448 34.1465 39.2453C34.7272 39.2458 35.308 39.2447 35.8887 39.2427C36.4481 39.2408 37.0075 39.2406 37.5668 39.2409C37.8046 39.2408 38.0423 39.2403 38.28 39.2394C38.6122 39.2382 38.9443 39.2389 39.2764 39.24C39.424 39.2389 39.424 39.2389 39.5746 39.2378C40.4157 39.2439 40.4157 39.2439 40.7806 39.5561C40.9256 39.846 40.9019 40.0806 40.8744 40.3999C40.6895 40.6378 40.5764 40.7585 40.2783 40.8218C40.1961 40.8218 40.1138 40.8218 40.0291 40.8219C39.8869 40.8232 39.8869 40.8232 39.7419 40.8247C39.6385 40.8237 39.5351 40.8228 39.4286 40.8219C39.3192 40.8224 39.2099 40.8229 39.0973 40.8234C38.7354 40.8246 38.3736 40.8231 38.0117 40.8214C37.7607 40.8214 37.5097 40.8215 37.2587 40.8218C36.7325 40.822 36.2063 40.8208 35.68 40.8186C35.0716 40.8161 34.4631 40.816 33.8546 40.8171C33.2692 40.8181 32.6839 40.8175 32.0985 40.8162C31.8494 40.8157 31.6003 40.8157 31.3511 40.8161C31.0034 40.8163 30.6558 40.8148 30.3081 40.8127C30.2045 40.8132 30.1009 40.8136 29.9942 40.814C29.8997 40.8131 29.8052 40.8122 29.7078 40.8112C29.6256 40.811 29.5434 40.8108 29.4587 40.8105C29.2021 40.7668 29.1212 40.7014 28.9681 40.4936C28.8933 40.1768 28.8474 39.9374 28.933 39.6206C29.2012 39.2913 29.5894 39.2514 29.9932 39.2504Z" fill="#573FE7"/>
<path d="M29.9673 43.0116C30.0568 43.0111 30.1463 43.0106 30.2385 43.01C30.3855 43.0099 30.3855 43.0099 30.5356 43.0097C30.6906 43.009 30.6906 43.009 30.8488 43.0083C31.1916 43.0069 31.5343 43.0063 31.8771 43.0058C32.1149 43.0052 32.3528 43.0047 32.5907 43.0041C33.026 43.0033 33.4613 43.0027 33.8966 43.0024C34.5366 43.002 35.1767 43.0003 35.8168 42.9976C36.3716 42.9954 36.9265 42.9946 37.4814 42.9945C37.7172 42.9942 37.953 42.9934 38.1888 42.9922C38.5187 42.9906 38.8486 42.9908 39.1785 42.9914C39.3247 42.9901 39.3247 42.9901 39.4739 42.9888C39.9783 42.9917 40.3493 43.0137 40.7815 43.3061C40.9264 43.5959 40.9028 43.8305 40.8752 44.1498C40.6905 44.3874 40.577 44.5083 40.2795 44.5723C40.1973 44.5725 40.1152 44.5728 40.0306 44.5731C39.9359 44.5742 39.8413 44.5754 39.7438 44.5767C39.6406 44.5761 39.5373 44.5754 39.4309 44.5748C39.2671 44.576 39.2671 44.576 39.1001 44.5773C38.7386 44.5794 38.3773 44.5788 38.0159 44.5779C37.8284 44.5783 37.641 44.5786 37.4536 44.5792C36.8644 44.5807 36.2752 44.5804 35.686 44.5788C35.0783 44.5773 34.4706 44.5787 33.8628 44.5818C33.3409 44.5843 32.8189 44.585 32.2969 44.5842C31.9852 44.5837 31.6736 44.5841 31.3619 44.5858C31.0144 44.5875 30.6671 44.5861 30.3196 44.584C30.1647 44.5856 30.1647 44.5856 30.0067 44.5873C29.3134 44.5786 29.3134 44.5786 28.9955 44.308C28.8313 43.964 28.8681 43.7629 28.969 43.3998C29.2307 43.043 29.5468 43.0131 29.9673 43.0116Z" fill="#573FE7"/>
<path d="M30.0687 46.7616C30.202 46.7608 30.202 46.7608 30.3379 46.76C30.4348 46.7599 30.5316 46.7598 30.6314 46.7597C30.7851 46.759 30.7851 46.759 30.9419 46.7583C31.2811 46.7569 31.6203 46.7563 31.9595 46.7558C32.1951 46.7552 32.4307 46.7547 32.6664 46.7541C33.0974 46.7533 33.5283 46.7527 33.9593 46.7524C34.5929 46.752 35.2265 46.7503 35.8601 46.7476C36.4096 46.7454 36.9592 46.7446 37.5087 46.7445C37.7421 46.7442 37.9756 46.7434 38.2091 46.7422C38.5356 46.7406 38.8621 46.7408 39.1886 46.7414C39.2851 46.7405 39.3815 46.7397 39.4809 46.7388C39.9831 46.7417 40.3509 46.7656 40.7815 47.0561C40.9264 47.3459 40.9028 47.5805 40.8752 47.8998C40.6905 48.1374 40.577 48.2583 40.2795 48.3223C40.1973 48.3225 40.1152 48.3228 40.0306 48.3231C39.9359 48.3242 39.8413 48.3254 39.7438 48.3267C39.6406 48.3261 39.5373 48.3254 39.4309 48.3248C39.2671 48.326 39.2671 48.326 39.1001 48.3273C38.7386 48.3294 38.3773 48.3288 38.0159 48.3279C37.8284 48.3283 37.641 48.3286 37.4536 48.3292C36.8644 48.3307 36.2752 48.3304 35.686 48.3288C35.0783 48.3273 34.4706 48.3287 33.8628 48.3318C33.3409 48.3343 32.8189 48.335 32.2969 48.3342C31.9852 48.3337 31.6736 48.3341 31.3619 48.3358C31.0144 48.3375 30.6671 48.3361 30.3196 48.334C30.1647 48.3356 30.1647 48.3356 30.0067 48.3373C29.3134 48.3286 29.3134 48.3286 28.9955 48.058C28.8313 47.714 28.8681 47.5129 28.969 47.1498C29.2388 46.7643 29.6283 46.7632 30.0687 46.7616Z" fill="#573FE7"/>
</g>
<defs>
<clipPath id="clip0_2027_377">
<rect width="48" height="48" fill="white" transform="translate(0 0.274902)"/>
</clipPath>
</defs>
</svg>
