<svg width="380" height="86" viewBox="0 0 380 86" fill="none" xmlns="http://www.w3.org/2000/svg">
<path d="M41.7847 85.7553C40.0847 85.7553 38.3647 85.6553 36.6547 85.4453C25.5247 84.0853 15.6147 78.3953 8.75475 69.4253C-5.41525 50.8953 -2.02524 23.9153 16.3248 9.2653C25.2848 2.1153 36.4047 -1.0647 47.6447 0.315299C58.7747 1.6753 68.6848 7.3653 75.5448 16.3353C89.7148 34.8653 86.3247 61.8453 67.9747 76.4953C60.3847 82.5553 51.2347 85.7653 41.7847 85.7653V85.7553ZM42.5247 8.6253C35.0147 8.6253 27.7448 11.1753 21.6948 16.0053C6.99475 27.7453 4.25475 49.3553 15.5947 64.1853C21.0347 71.2953 28.8848 75.8053 37.6948 76.8853C46.6048 77.9853 55.4547 75.4453 62.5847 69.7553C77.2847 58.0153 80.0247 36.4053 68.6847 21.5753C63.2447 14.4653 55.3947 9.9553 46.5847 8.8753C45.2247 8.7053 43.8747 8.6253 42.5247 8.6253Z" fill="url(#paint0_linear_27_51)"/>
<path d="M14.0447 66.7953C11.7947 62.1253 10.6747 56.9353 10.7847 51.5453C10.9847 42.4553 14.7047 33.8753 21.2547 27.3853C34.8247 13.9553 56.4847 13.7453 69.5347 26.9253C82.5747 40.1053 82.1547 61.7553 68.5847 75.1953C62.0247 81.6853 53.4147 85.3153 44.3247 85.4253C35.1747 85.5353 26.6547 82.0653 20.3147 75.6553C17.7147 73.0253 15.6147 70.0353 14.0547 66.7953H14.0447ZM67.9947 39.4853C66.8647 37.1353 65.3347 34.9353 63.4047 32.9953C53.7047 23.1953 37.5247 23.4353 27.3347 33.5253C22.3747 38.4353 19.5647 44.9053 19.4147 51.7453C19.2647 58.5253 21.7547 64.8653 26.4447 69.5953C31.1247 74.3253 37.4347 76.8853 44.2247 76.8053C51.0647 76.7253 57.5647 73.9753 62.5247 69.0753C70.6947 60.9853 72.5747 48.9953 68.0047 39.5053L67.9947 39.4853Z" fill="url(#paint1_linear_27_51)"/>
<path d="M56.5147 65.3453C45.4347 74.3753 29.0847 72.7053 20.0547 61.6353C11.0247 50.5553 12.6947 34.2053 23.7647 25.1753C34.8347 16.1453 51.1947 17.8153 60.2247 28.8853C69.2547 39.9653 67.5847 56.3153 56.5147 65.3453ZM29.2147 31.8553C21.8247 37.8753 20.7146 48.7953 26.7346 56.1853C32.7546 63.5753 43.6747 64.6853 51.0647 58.6653C58.4547 52.6453 59.5647 41.7253 53.5447 34.3353C47.5247 26.9453 36.6047 25.8353 29.2147 31.8553Z" fill="url(#paint2_linear_27_51)"/>
<path d="M120.575 29.0653L113.035 50.2453L105.495 29.0653H98.3447L109.015 56.2453H116.885L127.565 29.0653H120.575Z" fill="black"/>
<path d="M141.465 28.3453C132.885 28.3453 126.825 34.3953 126.825 42.6553C126.825 50.9153 132.875 56.9553 141.465 56.9553C147.905 56.9553 152.855 53.5953 154.885 48.4253H147.895C146.515 50.1853 144.375 51.0053 141.455 51.0053C137.605 51.0053 134.575 48.9153 133.695 44.9553H155.975V42.6453C155.975 34.3953 150.035 28.3353 141.445 28.3353L141.465 28.3453ZM133.875 39.7353C134.925 36.1553 137.785 34.2853 141.465 34.2853C145.145 34.2853 148.015 36.0953 149.055 39.7353H133.865H133.875Z" fill="black"/>
<path d="M191.805 28.3453C183.225 28.3453 177.165 34.3953 177.165 42.6553C177.165 52.2853 184.095 56.6253 190.585 56.6253C194.655 56.6253 197.905 54.9753 199.775 51.9453V54.3153C199.775 60.6453 196.745 62.8953 191.905 62.8953C188.445 62.8953 185.795 61.7453 184.695 59.2053H178.095C179.805 65.6453 185.135 68.5553 191.905 68.5553C199.885 68.5553 206.325 64.4853 206.325 54.0853V42.8553C206.325 34.0553 200.385 28.3353 191.795 28.3353L191.805 28.3453ZM191.805 50.5253C187.015 50.5253 183.775 47.4453 183.775 42.6553C183.775 37.8653 187.025 34.4553 191.805 34.4553C196.585 34.4553 199.785 37.8653 199.785 42.6553C199.785 47.4453 196.595 50.5253 191.805 50.5253Z" fill="black"/>
<path d="M224.345 28.3453C215.765 28.3453 209.705 34.3953 209.705 42.6553C209.705 50.9153 215.755 56.9553 224.345 56.9553C230.785 56.9553 235.735 53.5953 237.765 48.4253H230.775C229.395 50.1853 227.255 51.0053 224.335 51.0053C220.485 51.0053 217.455 48.9153 216.575 44.9553H238.855V42.6453C238.855 34.3953 232.915 28.3353 224.325 28.3353L224.345 28.3453ZM216.755 39.7353C217.805 36.1553 220.665 34.2853 224.345 34.2853C228.025 34.2853 230.895 36.0953 231.935 39.7353H216.745H216.755Z" fill="black"/>
<path d="M258.535 31.7553C263.485 31.7553 267.285 34.3953 268.765 38.4653H272.505C270.905 32.4153 265.575 28.3453 258.525 28.3453C249.945 28.3453 243.885 34.3953 243.885 42.6553C243.885 50.9153 249.935 56.9553 258.525 56.9553C265.565 56.9553 270.905 52.8853 272.505 46.8353H268.765C267.275 50.9053 263.485 53.5453 258.535 53.5453C252.045 53.5453 247.645 48.9253 247.645 42.6553C247.645 36.3853 252.045 31.7553 258.535 31.7553Z" fill="black"/>
<path d="M280.095 17.1853H276.405V56.2453H280.095V17.1853Z" fill="black"/>
<path d="M300.065 28.3453C291.485 28.3453 285.425 34.3953 285.425 42.6553C285.425 50.9153 291.475 56.9553 300.065 56.9553C308.655 56.9553 314.705 50.9053 314.705 42.6553C314.705 34.4053 308.655 28.3453 300.065 28.3453ZM300.065 53.5453C293.575 53.5453 289.175 48.9253 289.175 42.6553C289.175 36.3853 293.575 31.7553 300.065 31.7553C306.555 31.7553 310.955 36.3753 310.955 42.6553C310.955 48.9353 306.555 53.5453 300.065 53.5453Z" fill="black"/>
<path d="M342.155 43.2653C342.155 49.9253 338.305 53.5553 332.415 53.5553C326.525 53.5553 322.675 49.9253 322.675 43.2653V29.0653H318.985V43.2653C318.985 52.2853 324.375 56.9653 332.415 56.9653C340.455 56.9653 345.835 52.2853 345.835 43.2653V29.0653H342.145V43.2653H342.155Z" fill="black"/>
<path d="M375.655 17.1853V34.9053C373.625 30.7753 369.385 28.3553 364.215 28.3553C356.235 28.3553 350.125 34.1853 350.125 42.5453C350.125 50.9053 356.175 56.9553 364.815 56.9553C373.455 56.9553 379.345 51.2353 379.345 42.4853V17.1753H375.655V17.1853ZM364.765 53.5453C358.275 53.5453 353.875 48.9253 353.875 42.6553C353.875 36.3853 358.275 31.7553 364.765 31.7553C371.255 31.7553 375.655 36.3753 375.655 42.6553C375.655 48.9353 371.305 53.5453 364.765 53.5453Z" fill="black"/>
<path d="M160.285 40.4553V56.2453H166.835V40.4553C166.835 36.0553 169.035 34.4553 172.225 34.4553H175.985V28.3453H172.225C165.125 28.3453 160.285 32.2553 160.285 40.4453V40.4553Z" fill="black"/>
<defs>
<linearGradient id="paint0_linear_27_51" x1="9.17906" y1="89.546" x2="51.193" y2="15.4628" gradientUnits="userSpaceOnUse">
<stop stop-color="#BD1E2D"/>
<stop offset="0.13" stop-color="#C0252D"/>
<stop offset="0.32" stop-color="#C83A30"/>
<stop offset="0.55" stop-color="#D75B35"/>
<stop offset="0.82" stop-color="#EA8A3B"/>
<stop offset="1" stop-color="#FAAF40"/>
</linearGradient>
<linearGradient id="paint1_linear_27_51" x1="41.2807" y1="17.5098" x2="48.5275" y2="85.1637" gradientUnits="userSpaceOnUse">
<stop stop-color="#BD1E2D"/>
<stop offset="0.4" stop-color="#D75C35"/>
<stop offset="0.8" stop-color="#F0973C"/>
<stop offset="1" stop-color="#FAAF40"/>
</linearGradient>
<linearGradient id="paint2_linear_27_51" x1="20.0344" y1="61.552" x2="60.2055" y2="28.8009" gradientUnits="userSpaceOnUse">
<stop stop-color="#BD1E2D"/>
<stop offset="0.14" stop-color="#C83930"/>
<stop offset="0.42" stop-color="#DD6B37"/>
<stop offset="0.67" stop-color="#ED903B"/>
<stop offset="0.87" stop-color="#F6A63E"/>
<stop offset="1" stop-color="#FAAF40"/>
</linearGradient>
</defs>
</svg>
